<svg xmlns="http://www.w3.org/2000/svg" width="512" height="512" viewBox="0 0 512 512">
  <rect width="512" height="512" rx="100" fill="#0f172a"/>
  <g transform="translate(120,56) scale(0.7)" fill="#60a5fa">
    <path d="M113.5 32C100.6 13 80 0 56 0 25.1 0 0 25.1 0 56l0 336c0 30.9 25.1 56 56 56l176 0c30.9 0 56-25.1 56-56l0-336c0-30.9-25.1-56-56-56l-28.5 0C196.3 0 183.8 9 176 22.1L168.5 32 113.5 32zM160 64l-48 0c-8.8 0-16-7.2-16-16s7.2-16 16-16l96 0c8.8 0 16 7.2 16 16s-7.2 16-16 16l-48 0zm-32 112c0-8.8 7.2-16 16-16l96 0c8.8 0 16 7.2 16 16s-7.2 16-16 16l-96 0c-8.8 0-16-7.2-16-16zm0 64c0-8.8 7.2-16 16-16l96 0c8.8 0 16 7.2 16 16s-7.2 16-16 16l-96 0c-8.8 0-16-7.2-16-16zm0 64c0-8.8 7.2-16 16-16l96 0c8.8 0 16 7.2 16 16s-7.2 16-16 16l-96 0c-8.8 0-16-7.2-16-16z"/>
  </g>
</svg>
